<?xml version="1.0" encoding="utf-8"?>
<!-- Generator: Adobe Illustrator 25.2.0, SVG Export Plug-In . SVG Version: 6.00 Build 0)  -->
<svg version="1.1" id="Layer_1" xmlns="http://www.w3.org/2000/svg" xmlns:xlink="http://www.w3.org/1999/xlink" x="0px" y="0px"
	 viewBox="0 0 332.61 154.78" style="enable-background:new 0 0 332.61 154.78;" xml:space="preserve">
<style type="text/css">
	.st0{fill:#33487A;}
	.st1{fill:#009EE2;}
	.st2{fill:#294F81;}
	.st3{fill:#296ABD;}
</style>
<path class="st0" d="M64.45,55.29c0.62,1.97,1.13,6.36,1.46,12.15c0.34,5.86,0.51,13.11,0.68,20.54c2.31-1.85,5.01-4.56,7.71-7.37
	c2.7-2.81,5.4-5.8,7.88-8.67c2.87-3.32,5.74-6.7,8.61-10.24c2.19-0.62,4.56,0.11,6.64,1.46c2.03,1.4,3.83,3.38,4.84,5.29
	c1.01,1.92,1.29,3.77,0.39,4.84c-1.4,1.57-3.88,3.94-6.81,6.58c-2.99,2.7-6.53,5.69-10.13,8.61c5.69,0.4,9.97,3.27,13.11,7.54
	c3.1,4.33,5.07,10.08,6.13,16.1c1.07,6.08,1.18,12.38,0.68,17.79c-0.28,1.52-2.31,2.47-4.84,2.7c-2.08,0.22-4.5-0.06-6.7-0.85
	c-2.2-0.79-4-2.14-4.84-4.11c0.4-1.4,0.62-3.04,0.62-4.9c0-3.71-0.73-7.77-2.14-11.76c-1.4-3.99-3.49-7.37-6.08-9.85
	c-2.59-2.42-5.74-3.38-9.34-2.36c-1.8,0.51-3.66,1.63-5.63,3.38c0,6.81-0.06,13.29-0.17,18.35c-0.11,5.06-0.28,8.89-0.51,10.3
	c-3.66,2.08-7.04,2.19-9.45,1.41c-2.42-0.79-3.77-2.42-3.38-3.94c0.22-2.2,0.05-7.54-0.34-14.35c-0.39-6.81-0.96-15.09-1.63-23.13
	c-0.73-9.4-1.63-19.76-2.7-30.96c0.51-2.08,2.19-3.72,4.22-4.84c2.03-1.07,4.45-1.69,6.53-1.75C61.81,53.09,63.95,53.88,64.45,55.29
	z"/>
<path class="st0" d="M267.76,56.21c1.52,1.07,2.7,2.36,3.6,3.94c2.81,11.2,5.4,21.45,7.71,30.84c1.97,8.05,3.94,16.27,5.52,23.08
	c1.58,6.81,2.7,12.15,2.93,14.35c0.39,1.52-0.96,3.15-3.38,3.94c-2.42,0.78-5.8,0.67-9.45-1.41c-0.23-1.35-1.18-4.78-2.54-9.4
	l-2.42-7.77c-0.9-2.87-1.86-5.86-2.81-9.01c-6.31-0.68-12.72-0.96-19.76,0.33c-1.97,6.25-3.71,12.05-5.06,16.61
	c-0.73,2.31-1.29,4.22-1.74,5.8c-0.45,1.63-0.73,2.76-0.79,3.43c-3.66,2.08-7.04,2.19-9.45,1.41c-2.42-0.79-3.77-2.42-3.38-3.94
	c0.22-2.2,1.35-7.54,2.93-14.35c1.57-6.81,3.54-15.03,5.51-23.08c2.31-9.4,4.9-19.64,7.71-30.84c1.63-3.1,4.84-5.18,8.44-6.25
	c1.8-0.51,3.72-0.78,5.69-0.78C260.96,53.12,264.73,54.13,267.76,56.21z M254.48,78.44c-1.07,4.9-2.25,9.96-3.43,13.85
	c3.43-0.11,7.49,0.11,12.27,0.68c-1.18-4.06-2.31-9.23-3.32-14.24c-0.51-2.47-1.01-4.84-1.47-7.15c-0.45-2.31-0.84-4.28-1.24-5.91
	C256.57,68.87,255.55,73.55,254.48,78.44z"/>
<path class="st1" d="M80.4,147.91v6.87H47.68c-10.86,0-18.13-1.61-21.81-4.84c-3.69-3.23-5.53-9.66-5.53-19.3v-16.87
	c0-6.54-1.18-11.07-3.53-13.6c-2.36-2.53-6.63-3.79-12.82-3.79H0V89.5h3.99c6.19,0,10.46-1.27,12.82-3.8
	c2.35-2.53,3.53-7.06,3.53-13.6V55.22c0-9.64,1.84-16.06,5.53-19.26c3.68-3.21,10.95-4.81,21.81-4.81H80.4v6.8H47.29
	c-6.15,0-10.16,0.96-12.03,2.88c-1.88,1.92-2.81,5.95-2.81,12.1v18.77c0,6.89-1.09,11.82-3.27,14.78c-2.18,2.96-6.11,5.1-11.77,6.41
	c5.76,1.48,9.7,3.68,11.84,6.6c2.14,2.92,3.21,7.81,3.21,14.65v18.77c0,6.15,0.94,10.18,2.81,12.1c1.87,1.92,5.88,2.88,12.03,2.88
	H80.4z"/>
<path class="st1" d="M252.21,147.91h33.24c6.11,0,10.08-0.95,11.94-2.85c1.85-1.9,2.78-5.94,2.78-12.13v-18.77
	c0-6.84,1.07-11.73,3.21-14.65c2.14-2.92,6.06-5.12,11.77-6.6c-5.67-1.31-9.58-3.45-11.74-6.41s-3.24-7.89-3.24-14.78V52.93
	c0-6.19-0.93-10.23-2.78-12.13c-1.85-1.9-5.83-2.84-11.94-2.84h-33.24v-6.8h32.79c10.86,0,18.11,1.6,21.75,4.81
	c3.64,3.21,5.46,9.63,5.46,19.26V72.1c0,6.54,1.18,11.08,3.53,13.6c2.36,2.53,6.63,3.8,12.82,3.8h4.05v6.87h-4.05
	c-6.19,0-10.46,1.27-12.82,3.79c-2.35,2.53-3.53,7.06-3.53,13.6v16.87c0,9.64-1.82,16.07-5.46,19.3
	c-3.64,3.23-10.89,4.84-21.75,4.84h-32.79V147.91z"/>
<g>
	<path class="st1" d="M131.12,115.59c-9.38,0-16.35-7.21-16.35-17.67c0-11.7,6.35-18.83,16.35-18.83c9.3,0,15.81,7.05,15.81,17.52
		C146.93,108.46,140.65,115.59,131.12,115.59z M130.19,84.74c-5.66,0-9.38,4.57-9.38,11.93c0,8.06,3.95,13.18,10.85,13.18
		c5.97,0,9.15-4.96,9.15-11.86C140.81,89.23,137.16,84.74,130.19,84.74z"/>
	<path class="st1" d="M171.66,115.59c-8.76,0-16.12-7.98-16.12-17.83c0-12.09,5.65-18.76,15.42-18.76c4.26,0,8.13,1.94,10.54,6.74
		V8.42h1.63c2.94,0,4.5,1.55,4.5,4.88v82.91C187.62,109.77,182.66,115.59,171.66,115.59z M171.11,84.58
		c-6.12,0-9.53,4.65-9.53,12.63c0,7.05,4.34,12.71,10.62,12.71c6.35,0,9.3-3.41,9.3-12.01C181.5,91.48,179.56,84.58,171.11,84.58z"
		/>
	<path class="st1" d="M212.12,100.01h-8.68c0.54,5.89,4.65,10,11.24,10c5.43,0,8.68-1.7,10.69-3.64h0.31V109
		c0,3.72-3.95,6.59-11.86,6.59c-9.69,0-16.51-7.52-16.51-17.59c0-11.39,7.13-18.99,16.43-18.99c6.9,0,13.33,5.19,13.33,12.24
		C227.08,97.45,224.21,100.01,212.12,100.01z M213.13,84.35c-5.89,0-9.46,4.88-9.69,9.46l-0.08,1.47l7.98-0.15
		c8.45-0.16,9.92-0.93,9.92-3.57C221.27,87.76,218.63,84.35,213.13,84.35z"/>
</g>
<g>
	<circle class="st2" cx="184.52" cy="12.34" r="12.34"/>
	
		<ellipse transform="matrix(0.3105 -0.9506 0.9506 0.3105 119.8497 183.2875)" class="st3" cx="186.26" cy="9.03" rx="6.62" ry="6.62"/>
</g>
<g>
	<path class="st0" d="M122.53,120.44h-3.26v2.5h3.37v0.37c0,0.42-0.29,0.67-0.75,0.67h-2.63v4.03h-0.45c-0.5,0-0.75-0.2-0.75-0.7
		v-6.89c0-0.78,0.3-1.08,1.26-1.08h3.89v0.5C123.23,120.1,123.03,120.44,122.53,120.44z"/>
	<path class="st0" d="M126.8,128.15c-1.74,0-3.03-1.34-3.03-3.27c0-2.17,1.18-3.49,3.03-3.49c1.72,0,2.93,1.31,2.93,3.25
		C129.73,126.83,128.57,128.15,126.8,128.15z M126.63,122.44c-1.05,0-1.74,0.85-1.74,2.21c0,1.49,0.73,2.44,2.01,2.44
		c1.11,0,1.69-0.92,1.69-2.2C128.6,123.27,127.92,122.44,126.63,122.44z"/>
	<path class="st0" d="M134.91,122.87c-0.2-0.17-0.56-0.33-1-0.33c-0.86,0-1.19,0.43-1.19,1.82v3.66h-0.47
		c-0.4,0-0.63-0.32-0.63-0.75v-3c0-1.81,0.88-2.77,2.14-2.77c0.89,0,1.22,0.39,1.22,0.83v0.53H134.91z"/>
	<path class="st0" d="M145.68,128.02c-0.5,0-0.73-0.22-0.8-0.62c-0.11-0.59-0.32-1.26-0.42-1.68h-4.05c-0.17,0.65-0.4,1.58-0.53,2.3
		h-0.44c-0.36,0-0.52-0.17-0.52-0.56c0-1.21,1.72-6.48,3.06-8.11h0.39c0.49,0,0.79,0.32,1.16,0.98c0.76,1.35,2.14,4.88,2.57,7.7
		H145.68z M142.42,120.4c-0.82,1.45-1.31,2.79-1.75,4.39h3.5C143.71,123.17,143.16,121.76,142.42,120.4z"/>
	<path class="st0" d="M149.44,128.06c-1.29,0-1.98-0.62-1.98-1.94v-7.21h0.34c0.45,0,0.78,0.29,0.78,0.86V126
		c0,0.82,0.42,1.05,1.03,1.05h0.72v0.37C150.33,127.86,150.03,128.06,149.44,128.06z"/>
	<path class="st0" d="M153.53,128.06c-1.29,0-1.98-0.62-1.98-1.94v-7.21h0.34c0.45,0,0.78,0.29,0.78,0.86V126
		c0,0.82,0.42,1.05,1.03,1.05h0.72v0.37C154.42,127.86,154.12,128.06,153.53,128.06z"/>
	<path class="st0" d="M163.53,120.41h-2.04v7.61h-0.43c-0.5,0-0.76-0.17-0.76-0.75v-6.86h-2.64v-0.43c0-0.33,0.21-0.65,0.75-0.65
		h5.8v0.45C164.21,120.02,163.92,120.41,163.53,120.41z"/>
	<path class="st0" d="M166.5,125.26h-1.61c0.1,1.09,0.86,1.85,2.08,1.85c1,0,1.61-0.32,1.98-0.67h0.06v0.49
		c0,0.69-0.73,1.22-2.2,1.22c-1.79,0-3.06-1.39-3.06-3.26c0-2.11,1.32-3.52,3.04-3.52c1.28,0,2.47,0.96,2.47,2.27
		C169.27,124.79,168.74,125.26,166.5,125.26z M166.69,122.36c-1.09,0-1.75,0.9-1.79,1.75l-0.01,0.27l1.48-0.03
		c1.57-0.03,1.84-0.17,1.84-0.66C168.2,123,167.71,122.36,166.69,122.36z"/>
	<path class="st0" d="M175.8,123.27c-0.23-0.49-1.03-0.86-1.67-0.86c-1.29,0-2.15,0.95-2.15,2.25c0,1.71,1.16,2.44,2.18,2.44
		c0.7,0,1.31-0.17,1.64-0.57h0.06V127c0,0.42-0.49,1.15-1.9,1.15c-1.36,0-3.12-1.21-3.12-3.32c0-1.85,1.26-3.46,3.23-3.46
		c0.98,0,1.78,0.49,1.78,1.42v0.47H175.8z"/>
	<path class="st0" d="M182.89,128.02c-0.59,0-0.82-0.23-0.82-0.72v-3.09c0-1.31-0.55-1.79-1.55-1.79c-0.76,0-1.64,0.62-1.64,1.85
		v3.75h-0.32c-0.54,0-0.78-0.23-0.78-0.72v-8.39h0.33c0.5,0,0.79,0.22,0.79,0.83v2.77c0.47-0.89,1.16-1.15,1.77-1.15
		c1.55,0,2.51,0.85,2.51,2.8v3.85H182.89z"/>
	<path class="st0" d="M190.2,128.02c-0.45,0-0.69-0.23-0.69-0.72v-3c0-1.36-0.5-1.88-1.67-1.88c-0.98,0-1.54,0.55-1.54,1.88v3.72
		h-0.42c-0.4,0-0.69-0.24-0.69-0.76v-2.99c0-1.82,1.11-2.9,2.77-2.9c1.64,0,2.63,0.93,2.63,2.89v3.76H190.2z"/>
	<path class="st0" d="M195.42,128.15c-1.74,0-3.03-1.34-3.03-3.27c0-2.17,1.18-3.49,3.03-3.49c1.72,0,2.93,1.31,2.93,3.25
		C198.35,126.83,197.19,128.15,195.42,128.15z M195.25,122.44c-1.05,0-1.74,0.85-1.74,2.21c0,1.49,0.73,2.44,2.01,2.44
		c1.11,0,1.69-0.92,1.69-2.2C197.22,123.27,196.54,122.44,195.25,122.44z"/>
	<path class="st0" d="M202.28,128.06c-1.29,0-1.98-0.62-1.98-1.94v-7.21h0.34c0.45,0,0.78,0.29,0.78,0.86V126
		c0,0.82,0.42,1.05,1.03,1.05h0.72v0.37C203.17,127.86,202.87,128.06,202.28,128.06z"/>
	<path class="st0" d="M207.06,128.15c-1.74,0-3.03-1.34-3.03-3.27c0-2.17,1.18-3.49,3.03-3.49c1.72,0,2.93,1.31,2.93,3.25
		C209.99,126.83,208.83,128.15,207.06,128.15z M206.89,122.44c-1.05,0-1.74,0.85-1.74,2.21c0,1.49,0.73,2.44,2.01,2.44
		c1.11,0,1.69-0.92,1.69-2.2C208.85,123.27,208.18,122.44,206.89,122.44z"/>
	<path class="st0" d="M217.21,127.09c0,2.02-1.38,2.96-3.09,2.96c-1.05,0-2.04-0.52-2.04-1.31v-0.44h0.09c0.44,0.42,1,0.7,2.08,0.7
		c1.06,0,1.9-0.6,1.9-1.85c0-0.19-0.07-0.53-0.07-0.85v-0.33c-0.26,0.62-0.82,1.19-1.79,1.19c-1.54,0-2.71-0.98-2.71-2.6
		s0.99-3.19,3.12-3.19c1.46,0,2.47,0.92,2.47,2.77v1.79C217.15,126.24,217.21,126.84,217.21,127.09z M214.51,122.41
		c-1.15,0-1.82,0.93-1.82,1.91c0,1.31,0.7,1.82,1.72,1.82c1.05,0,1.67-0.73,1.67-1.72C216.07,123.02,215.56,122.41,214.51,122.41z"
		/>
	<path class="st0" d="M222.49,127.4c-1.03,2.1-1.64,2.77-2.57,2.77c-0.5,0-0.85-0.29-0.85-0.56v-0.42h0.53
		c0.52,0,0.83-0.13,1.59-1.55c-1.02-1.58-2.11-4.02-2.51-6.16h0.63c0.46,0,0.62,0.36,0.69,0.66c0.29,1.31,0.95,3.1,1.77,4.45
		c0.7-1.21,1.64-3.68,1.85-5.11h0.45c0.29,0,0.52,0.11,0.52,0.5c0,0.13-0.09,0.5-0.14,0.69
		C223.94,124.62,222.85,126.69,222.49,127.4z"/>
</g>
<g>
	<path class="st0" d="M86.69,151.24v2.16h-0.26c-0.26,0-0.44-0.13-0.44-0.42v-1.73c-0.61-0.81-1.33-2.04-1.67-3.01h0.36
		c0.24,0,0.41,0.11,0.52,0.38c0.26,0.62,0.68,1.37,1.19,2.1c0.48-0.68,1.09-1.73,1.37-2.48h0.28c0.21,0,0.27,0.11,0.27,0.28
		C88.32,148.85,87.25,150.57,86.69,151.24z"/>
	<path class="st0" d="M89.99,153.48c-1.03,0-1.8-0.79-1.8-1.95c0-1.29,0.7-2.08,1.8-2.08c1.03,0,1.74,0.78,1.74,1.93
		C91.73,152.69,91.04,153.48,89.99,153.48z M89.89,150.08c-0.62,0-1.03,0.5-1.03,1.32c0,0.89,0.44,1.45,1.2,1.45
		c0.66,0,1.01-0.55,1.01-1.31C91.06,150.57,90.66,150.08,89.89,150.08z"/>
	<path class="st0" d="M94.4,153.48c-0.96,0-1.59-0.67-1.59-1.8v-2.16h0.21c0.3,0,0.46,0.18,0.46,0.52v1.6c0,0.79,0.4,1.21,0.97,1.21
		c0.61,0,0.92-0.34,0.92-1.18v-2.15h0.18c0.32,0,0.48,0.17,0.48,0.52v1.7C96.02,152.87,95.43,153.48,94.4,153.48z"/>
	<path class="st0" d="M99.79,148.98c-0.24,0-0.44-0.2-0.44-0.45c0-0.25,0.21-0.46,0.44-0.46c0.25,0,0.44,0.21,0.44,0.46
		C100.23,148.78,100.03,148.98,99.79,148.98z M100.61,153.44c-0.77,0-1.16-0.38-1.16-1.15v-2.77h0.2c0.23,0,0.46,0.18,0.46,0.52
		v2.15c0,0.49,0.24,0.64,0.61,0.64h0.28v0.21C100.99,153.29,100.84,153.44,100.61,153.44z"/>
	<path class="st0" d="M106.96,153.4c-0.26,0-0.44-0.17-0.44-0.49v-1.72c0-0.81-0.31-1.13-0.84-1.13c-0.64,0-0.91,0.32-0.91,1.11
		v2.22h-0.22c-0.32,0-0.44-0.17-0.44-0.49v-1.72c0-0.7-0.32-1.13-0.87-1.13c-0.57,0-0.87,0.34-0.87,1.13v2.21h-0.21
		c-0.27,0-0.45-0.16-0.45-0.49v-1.8c0-0.89,0.56-1.67,1.58-1.67c0.57,0,0.96,0.26,1.2,0.7c0.26-0.42,0.71-0.7,1.22-0.7
		c0.97,0,1.48,0.58,1.48,1.73v2.22H106.96z"/>
	<path class="st0" d="M109.74,153.48c-0.79,0-1.49-0.46-1.49-1.15c0-0.84,0.65-1.29,1.81-1.29h0.52v-0.18c0-0.57-0.28-0.8-0.92-0.8
		c-0.58,0-1.01,0.22-1.23,0.53h-0.04v-0.32c0-0.36,0.47-0.82,1.34-0.82c0.98,0,1.51,0.51,1.51,1.46v1.21
		C111.26,152.91,110.83,153.48,109.74,153.48z M110.6,151.59h-0.53c-0.78,0-1.14,0.24-1.14,0.67c0,0.34,0.34,0.61,0.84,0.61
		c0.59,0,0.83-0.23,0.83-0.79V151.59z"/>
	<path class="st0" d="M115.65,152.85c0,1.21-0.82,1.76-1.84,1.76c-0.62,0-1.21-0.31-1.21-0.78v-0.27h0.05
		c0.26,0.25,0.6,0.42,1.24,0.42c0.63,0,1.13-0.36,1.13-1.1c0-0.11-0.04-0.32-0.04-0.5v-0.2c-0.15,0.37-0.49,0.71-1.07,0.71
		c-0.91,0-1.62-0.58-1.62-1.55s0.59-1.9,1.85-1.9c0.87,0,1.47,0.55,1.47,1.65v1.07C115.61,152.34,115.65,152.7,115.65,152.85z
		 M114.04,150.06c-0.68,0-1.08,0.56-1.08,1.14c0,0.78,0.42,1.09,1.03,1.09c0.62,0,0.99-0.44,0.99-1.03
		C114.97,150.43,114.66,150.06,114.04,150.06z"/>
	<path class="st0" d="M117.27,148.98c-0.24,0-0.44-0.2-0.44-0.45c0-0.25,0.21-0.46,0.44-0.46c0.25,0,0.44,0.21,0.44,0.46
		C117.71,148.78,117.52,148.98,117.27,148.98z M118.09,153.44c-0.77,0-1.16-0.38-1.16-1.15v-2.77h0.2c0.23,0,0.46,0.18,0.46,0.52
		v2.15c0,0.49,0.24,0.64,0.61,0.64h0.28v0.21C118.47,153.29,118.32,153.44,118.09,153.44z"/>
	<path class="st0" d="M122.17,153.4c-0.26,0-0.41-0.14-0.41-0.43v-1.79c0-0.81-0.3-1.12-0.99-1.12c-0.58,0-0.92,0.32-0.92,1.12v2.21
		h-0.25c-0.24,0-0.41-0.15-0.41-0.45v-1.78c0-1.08,0.66-1.73,1.65-1.73c0.97,0,1.56,0.56,1.56,1.72v2.24H122.17z"/>
	<path class="st0" d="M125.11,151.76h-0.96c0.06,0.65,0.51,1.1,1.24,1.1c0.6,0,0.96-0.19,1.18-0.4h0.03v0.29
		c0,0.41-0.44,0.73-1.31,0.73c-1.07,0-1.82-0.83-1.82-1.94c0-1.26,0.79-2.09,1.81-2.09c0.76,0,1.47,0.57,1.47,1.35
		C126.76,151.48,126.44,151.76,125.11,151.76z M125.22,150.04c-0.65,0-1.04,0.54-1.07,1.04l-0.01,0.16l0.88-0.02
		c0.93-0.02,1.09-0.1,1.09-0.39C126.12,150.41,125.83,150.04,125.22,150.04z"/>
	<path class="st0" d="M130.39,148.98c-0.24,0-0.44-0.2-0.44-0.45c0-0.25,0.21-0.46,0.44-0.46c0.25,0,0.44,0.21,0.44,0.46
		C130.84,148.78,130.64,148.98,130.39,148.98z M131.21,153.44c-0.77,0-1.16-0.38-1.16-1.15v-2.77h0.2c0.23,0,0.46,0.18,0.46,0.52
		v2.15c0,0.49,0.24,0.64,0.61,0.64h0.28v0.21C131.6,153.29,131.45,153.44,131.21,153.44z"/>
	<path class="st0" d="M137.57,153.4c-0.26,0-0.44-0.17-0.44-0.49v-1.72c0-0.81-0.31-1.13-0.84-1.13c-0.64,0-0.91,0.32-0.91,1.11
		v2.22h-0.22c-0.32,0-0.44-0.17-0.44-0.49v-1.72c0-0.7-0.32-1.13-0.87-1.13c-0.57,0-0.87,0.34-0.87,1.13v2.21h-0.21
		c-0.27,0-0.45-0.16-0.45-0.49v-1.8c0-0.89,0.56-1.67,1.58-1.67c0.57,0,0.97,0.26,1.21,0.7c0.26-0.42,0.71-0.7,1.22-0.7
		c0.96,0,1.48,0.58,1.48,1.73v2.22H137.57z"/>
	<path class="st0" d="M140.78,153.48c-0.44,0-0.92-0.28-1.12-0.68v1.85h-0.24c-0.28,0-0.44-0.15-0.44-0.5v-2.57
		c0-1.32,0.62-2.12,1.86-2.12c0.85,0,1.67,0.78,1.67,1.92C142.52,152.7,141.76,153.48,140.78,153.48z M140.7,150.07
		c-0.68,0-1.06,0.51-1.06,1.32c0,1,0.49,1.47,1.21,1.47c0.62,0,1-0.46,1-1.31C141.85,150.5,141.38,150.07,140.7,150.07z"/>
	<path class="st0" d="M145.26,153.48c-1.03,0-1.8-0.79-1.8-1.95c0-1.29,0.7-2.08,1.8-2.08c1.03,0,1.74,0.78,1.74,1.93
		C147.01,152.69,146.32,153.48,145.26,153.48z M145.16,150.08c-0.62,0-1.03,0.5-1.03,1.32c0,0.89,0.44,1.45,1.2,1.45
		c0.66,0,1.01-0.55,1.01-1.31C146.33,150.57,145.93,150.08,145.16,150.08z"/>
	<path class="st0" d="M149.19,153.48c-0.65,0-1.17-0.31-1.17-0.78v-0.28h0.03c0.21,0.24,0.65,0.44,1.15,0.44
		c0.57,0,0.83-0.18,0.83-0.56c0-0.32-0.14-0.46-1.03-0.65c-0.73-0.15-1.07-0.39-1.07-0.97c0-0.63,0.57-1.22,1.54-1.22
		c0.57,0,1.14,0.26,1.14,0.73v0.29h-0.03c-0.17-0.21-0.59-0.4-1.05-0.4c-0.66,0-0.92,0.22-0.92,0.55c0,0.28,0.15,0.38,0.96,0.55
		c0.77,0.17,1.15,0.54,1.15,1.06C150.71,153.04,150.08,153.48,149.19,153.48z"/>
	<path class="st0" d="M152.87,153.48c-0.65,0-1.17-0.31-1.17-0.78v-0.28h0.03c0.21,0.24,0.65,0.44,1.15,0.44
		c0.57,0,0.83-0.18,0.83-0.56c0-0.32-0.14-0.46-1.03-0.65c-0.73-0.15-1.07-0.39-1.07-0.97c0-0.63,0.57-1.22,1.54-1.22
		c0.57,0,1.14,0.26,1.14,0.73v0.29h-0.03c-0.17-0.21-0.59-0.4-1.05-0.4c-0.66,0-0.92,0.22-0.92,0.55c0,0.28,0.15,0.38,0.96,0.55
		c0.77,0.17,1.14,0.54,1.14,1.06C154.39,153.04,153.76,153.48,152.87,153.48z"/>
	<path class="st0" d="M155.93,148.98c-0.24,0-0.44-0.2-0.44-0.45c0-0.25,0.21-0.46,0.44-0.46c0.25,0,0.44,0.21,0.44,0.46
		C156.37,148.78,156.18,148.98,155.93,148.98z M156.75,153.44c-0.77,0-1.16-0.38-1.16-1.15v-2.77h0.2c0.23,0,0.46,0.18,0.46,0.52
		v2.15c0,0.49,0.24,0.64,0.61,0.64h0.28v0.21C157.14,153.29,156.98,153.44,156.75,153.44z"/>
	<path class="st0" d="M159.59,153.48c-1.08,0-1.73-0.79-1.73-1.93v-3.56h0.32c0.17,0,0.37,0.13,0.37,0.45v1.78
		c0.21-0.48,0.7-0.77,1.24-0.77c0.89,0,1.63,0.69,1.63,1.95C161.42,152.58,160.69,153.48,159.59,153.48z M159.6,150.06
		c-0.62,0-1.06,0.56-1.06,1.41c0,0.97,0.45,1.38,1.13,1.38c0.65,0,1.07-0.55,1.07-1.38C160.74,150.42,160.24,150.06,159.6,150.06z"
		/>
	<path class="st0" d="M163.75,153.43c-0.77,0-1.18-0.37-1.18-1.15v-4.29h0.21c0.26,0,0.46,0.17,0.46,0.51v3.7
		c0,0.49,0.25,0.62,0.62,0.62h0.43v0.22C164.28,153.31,164.1,153.43,163.75,153.43z"/>
	<path class="st0" d="M166.42,151.76h-0.96c0.06,0.65,0.51,1.1,1.24,1.1c0.6,0,0.96-0.19,1.18-0.4h0.03v0.29
		c0,0.41-0.44,0.73-1.31,0.73c-1.07,0-1.82-0.83-1.82-1.94c0-1.26,0.79-2.09,1.81-2.09c0.76,0,1.47,0.57,1.47,1.35
		C168.07,151.48,167.75,151.76,166.42,151.76z M166.53,150.04c-0.65,0-1.04,0.54-1.07,1.04l-0.01,0.16l0.88-0.02
		c0.93-0.02,1.09-0.1,1.09-0.39C167.43,150.41,167.14,150.04,166.53,150.04z"/>
	<path class="st0" d="M169.73,153.4c-0.31,0-0.55-0.22-0.55-0.53c0-0.32,0.24-0.54,0.55-0.54c0.3,0,0.54,0.22,0.54,0.54
		C170.27,153.18,170.03,153.4,169.73,153.4z"/>
	<path class="st0" d="M178.28,153.44h-0.17c-0.43,0-1.15-1.98-1.5-3.76c-0.31,1.47-0.91,3.14-1.26,3.76h-0.15
		c-0.19,0-0.34-0.15-0.39-0.24c-0.74-1.47-1.24-3.11-1.5-4.96h0.36c0.24,0,0.39,0.22,0.44,0.45c0.2,1.2,0.56,2.54,1.06,3.73
		c0.53-1.37,0.97-3,1.15-4.02h0.2c0.35,0,0.46,0.1,0.55,0.58c0.2,0.96,0.6,2.38,1.07,3.43c0.5-1.21,0.99-2.89,1.14-4.19h0.35
		c0.15,0,0.28,0.12,0.28,0.33c0,0.14-0.04,0.27-0.06,0.41C179.57,150.37,179.04,151.99,178.28,153.44z"/>
	<path class="st0" d="M182.06,151.76h-0.96c0.06,0.65,0.51,1.1,1.24,1.1c0.6,0,0.96-0.19,1.18-0.4h0.03v0.29
		c0,0.41-0.44,0.73-1.31,0.73c-1.07,0-1.82-0.83-1.82-1.94c0-1.26,0.79-2.09,1.81-2.09c0.76,0,1.47,0.57,1.47,1.35
		C183.71,151.48,183.39,151.76,182.06,151.76z M182.17,150.04c-0.65,0-1.04,0.54-1.07,1.04l-0.01,0.16l0.88-0.02
		c0.93-0.02,1.09-0.1,1.09-0.39C183.07,150.41,182.78,150.04,182.17,150.04z"/>
	<path class="st0" d="M188.58,153.48c-1.08,0-1.73-0.79-1.73-1.93v-3.56h0.32c0.17,0,0.37,0.13,0.37,0.45v1.78
		c0.21-0.48,0.7-0.77,1.24-0.77c0.89,0,1.63,0.69,1.63,1.95C190.41,152.58,189.68,153.48,188.58,153.48z M188.6,150.06
		c-0.62,0-1.06,0.56-1.06,1.41c0,0.97,0.45,1.38,1.13,1.38c0.65,0,1.07-0.55,1.07-1.38C189.74,150.42,189.23,150.06,188.6,150.06z"
		/>
	<path class="st0" d="M193.07,153.48c-0.96,0-1.59-0.67-1.59-1.8v-2.16h0.21c0.3,0,0.46,0.18,0.46,0.52v1.6
		c0,0.79,0.4,1.21,0.97,1.21c0.61,0,0.92-0.34,0.92-1.18v-2.15h0.18c0.32,0,0.48,0.17,0.48,0.52v1.7
		C194.69,152.87,194.1,153.48,193.07,153.48z"/>
	<path class="st0" d="M196.37,148.98c-0.24,0-0.44-0.2-0.44-0.45c0-0.25,0.21-0.46,0.44-0.46c0.25,0,0.44,0.21,0.44,0.46
		C196.81,148.78,196.62,148.98,196.37,148.98z M197.19,153.44c-0.77,0-1.16-0.38-1.16-1.15v-2.77h0.2c0.23,0,0.46,0.18,0.46,0.52
		v2.15c0,0.49,0.24,0.64,0.61,0.64h0.28v0.21C197.57,153.29,197.42,153.44,197.19,153.44z"/>
	<path class="st0" d="M199.56,153.43c-0.77,0-1.18-0.37-1.18-1.15v-4.29h0.21c0.26,0,0.46,0.17,0.46,0.51v3.7
		c0,0.49,0.25,0.62,0.62,0.62h0.43v0.22C200.09,153.31,199.91,153.43,199.56,153.43z"/>
	<path class="st0" d="M202.38,153.48c-0.96,0-1.78-0.88-1.78-1.97c0-1.33,0.62-2.07,1.7-2.07c0.47,0,0.9,0.21,1.16,0.74v-2.21h0.18
		c0.33,0,0.5,0.17,0.5,0.54v2.82C204.14,152.84,203.6,153.48,202.38,153.48z M202.32,150.06c-0.67,0-1.05,0.51-1.05,1.39
		c0,0.78,0.48,1.4,1.17,1.4c0.7,0,1.03-0.38,1.03-1.32C203.47,150.82,203.25,150.06,202.32,150.06z"/>
	<path class="st0" d="M207.91,148.98c-0.24,0-0.44-0.2-0.44-0.45c0-0.25,0.21-0.46,0.44-0.46c0.25,0,0.44,0.21,0.44,0.46
		C208.35,148.78,208.16,148.98,207.91,148.98z M208.73,153.44c-0.77,0-1.16-0.38-1.16-1.15v-2.77h0.2c0.23,0,0.46,0.18,0.46,0.52
		v2.15c0,0.49,0.24,0.64,0.61,0.64h0.28v0.21C209.11,153.29,208.96,153.44,208.73,153.44z"/>
	<path class="st0" d="M215.08,153.4c-0.26,0-0.44-0.17-0.44-0.49v-1.72c0-0.81-0.31-1.13-0.84-1.13c-0.64,0-0.91,0.32-0.91,1.11
		v2.22h-0.22c-0.32,0-0.44-0.17-0.44-0.49v-1.72c0-0.7-0.32-1.13-0.87-1.13c-0.57,0-0.87,0.34-0.87,1.13v2.21h-0.21
		c-0.27,0-0.45-0.16-0.45-0.49v-1.8c0-0.89,0.56-1.67,1.58-1.67c0.57,0,0.96,0.26,1.2,0.7c0.26-0.42,0.71-0.7,1.22-0.7
		c0.97,0,1.48,0.58,1.48,1.73v2.22H215.08z"/>
	<path class="st0" d="M218.29,153.48c-0.44,0-0.92-0.28-1.12-0.68v1.85h-0.24c-0.28,0-0.44-0.15-0.44-0.5v-2.57
		c0-1.32,0.62-2.12,1.86-2.12c0.85,0,1.67,0.78,1.67,1.92C220.04,152.7,219.27,153.48,218.29,153.48z M218.22,150.07
		c-0.68,0-1.06,0.51-1.06,1.32c0,1,0.49,1.47,1.21,1.47c0.62,0,1-0.46,1-1.31C219.36,150.5,218.89,150.07,218.22,150.07z"/>
	<path class="st0" d="M222.78,153.48c-1.03,0-1.8-0.79-1.8-1.95c0-1.29,0.7-2.08,1.8-2.08c1.03,0,1.74,0.78,1.74,1.93
		C224.52,152.69,223.83,153.48,222.78,153.48z M222.67,150.08c-0.62,0-1.03,0.5-1.03,1.32c0,0.89,0.44,1.45,1.2,1.45
		c0.66,0,1.01-0.55,1.01-1.31C223.84,150.57,223.44,150.08,222.67,150.08z"/>
	<path class="st0" d="M226.7,153.48c-0.65,0-1.17-0.31-1.17-0.78v-0.28h0.03c0.21,0.24,0.65,0.44,1.15,0.44
		c0.57,0,0.83-0.18,0.83-0.56c0-0.32-0.14-0.46-1.03-0.65c-0.73-0.15-1.07-0.39-1.07-0.97c0-0.63,0.57-1.22,1.54-1.22
		c0.57,0,1.14,0.26,1.14,0.73v0.29h-0.03c-0.17-0.21-0.59-0.4-1.05-0.4c-0.66,0-0.92,0.22-0.92,0.55c0,0.28,0.15,0.38,0.96,0.55
		c0.77,0.17,1.15,0.54,1.15,1.06C228.23,153.04,227.59,153.48,226.7,153.48z"/>
	<path class="st0" d="M230.39,153.48c-0.65,0-1.17-0.31-1.17-0.78v-0.28h0.03c0.21,0.24,0.65,0.44,1.15,0.44
		c0.57,0,0.83-0.18,0.83-0.56c0-0.32-0.14-0.46-1.03-0.65c-0.73-0.15-1.07-0.39-1.07-0.97c0-0.63,0.57-1.22,1.54-1.22
		c0.57,0,1.14,0.26,1.14,0.73v0.29h-0.03c-0.17-0.21-0.59-0.4-1.05-0.4c-0.66,0-0.92,0.22-0.92,0.55c0,0.28,0.15,0.38,0.96,0.55
		c0.77,0.17,1.15,0.54,1.15,1.06C231.91,153.04,231.28,153.48,230.39,153.48z"/>
	<path class="st0" d="M233.44,148.98c-0.24,0-0.44-0.2-0.44-0.45c0-0.25,0.21-0.46,0.44-0.46c0.25,0,0.44,0.21,0.44,0.46
		C233.89,148.78,233.69,148.98,233.44,148.98z M234.26,153.44c-0.77,0-1.16-0.38-1.16-1.15v-2.77h0.2c0.23,0,0.46,0.18,0.46,0.52
		v2.15c0,0.49,0.24,0.64,0.61,0.64h0.28v0.21C234.65,153.29,234.49,153.44,234.26,153.44z"/>
	<path class="st0" d="M237.1,153.48c-1.08,0-1.73-0.79-1.73-1.93v-3.56h0.32c0.17,0,0.37,0.13,0.37,0.45v1.78
		c0.21-0.48,0.7-0.77,1.24-0.77c0.89,0,1.63,0.69,1.63,1.95C238.93,152.58,238.2,153.48,237.1,153.48z M237.12,150.06
		c-0.62,0-1.06,0.56-1.06,1.41c0,0.97,0.45,1.38,1.13,1.38c0.65,0,1.07-0.55,1.07-1.38C238.25,150.42,237.75,150.06,237.12,150.06z"
		/>
	<path class="st0" d="M241.26,153.43c-0.77,0-1.18-0.37-1.18-1.15v-4.29h0.21c0.26,0,0.46,0.17,0.46,0.51v3.7
		c0,0.49,0.25,0.62,0.62,0.62h0.43v0.22C241.79,153.31,241.61,153.43,241.26,153.43z"/>
	<path class="st0" d="M243.93,151.76h-0.96c0.06,0.65,0.51,1.1,1.24,1.1c0.6,0,0.96-0.19,1.18-0.4h0.03v0.29
		c0,0.41-0.44,0.73-1.31,0.73c-1.07,0-1.82-0.83-1.82-1.94c0-1.26,0.79-2.09,1.81-2.09c0.76,0,1.47,0.57,1.47,1.35
		C245.58,151.48,245.27,151.76,243.93,151.76z M244.04,150.04c-0.65,0-1.04,0.54-1.07,1.04l-0.01,0.16l0.88-0.02
		c0.93-0.02,1.09-0.1,1.09-0.39C244.94,150.41,244.65,150.04,244.04,150.04z"/>
	<path class="st0" d="M247.24,153.4c-0.31,0-0.55-0.22-0.55-0.53c0-0.32,0.24-0.54,0.55-0.54c0.3,0,0.54,0.22,0.54,0.54
		C247.78,153.18,247.54,153.4,247.24,153.4z"/>
</g>
</svg>
