<?xml version="1.0" encoding="utf-8"?>
<!-- Generator: Adobe Illustrator 25.2.0, SVG Export Plug-In . SVG Version: 6.00 Build 0)  -->
<svg version="1.1" id="Layer_1" xmlns="http://www.w3.org/2000/svg" xmlns:xlink="http://www.w3.org/1999/xlink" x="0px" y="0px"
	 viewBox="0 0 332.6 154.8" style="enable-background:new 0 0 332.6 154.8;" xml:space="preserve">
<style type="text/css">
	.st0{fill:#FFFFFF;}
</style>
<path class="st0" d="M64.4,55.3c0.6,2,1.1,6.4,1.5,12.2c0.3,5.9,0.5,13.1,0.7,20.5c2.3-1.8,5-4.6,7.7-7.4c2.7-2.8,5.4-5.8,7.9-8.7
	c2.9-3.3,5.7-6.7,8.6-10.2c2.2-0.6,4.6,0.1,6.6,1.5c2,1.4,3.8,3.4,4.8,5.3c1,1.9,1.3,3.8,0.4,4.8c-1.4,1.6-3.9,3.9-6.8,6.6
	c-3,2.7-6.5,5.7-10.1,8.6c5.7,0.4,10,3.3,13.1,7.5c3.1,4.3,5.1,10.1,6.1,16.1c1.1,6.1,1.2,12.4,0.7,17.8c-0.3,1.5-2.3,2.5-4.8,2.7
	c-2.1,0.2-4.5-0.1-6.7-0.9c-2.2-0.8-4-2.1-4.8-4.1c0.4-1.4,0.6-3,0.6-4.9c0-3.7-0.7-7.8-2.1-11.8c-1.4-4-3.5-7.4-6.1-9.8
	c-2.6-2.4-5.7-3.4-9.3-2.4c-1.8,0.5-3.7,1.6-5.6,3.4c0,6.8-0.1,13.3-0.2,18.3s-0.3,8.9-0.5,10.3c-3.7,2.1-7,2.2-9.5,1.4
	c-2.4-0.8-3.8-2.4-3.4-3.9c0.2-2.2,0-7.5-0.3-14.3s-1-15.1-1.6-23.1c-0.7-9.4-1.6-19.8-2.7-31c0.5-2.1,2.2-3.7,4.2-4.8
	c2-1.1,4.5-1.7,6.5-1.8C61.8,53.1,64,53.9,64.4,55.3z"/>
<path class="st0" d="M267.8,56.2c1.5,1.1,2.7,2.4,3.6,3.9c2.8,11.2,5.4,21.5,7.7,30.8c2,8.1,3.9,16.3,5.5,23.1
	c1.6,6.8,2.7,12.2,2.9,14.3c0.4,1.5-1,3.1-3.4,3.9c-2.4,0.8-5.8,0.7-9.5-1.4c-0.2-1.4-1.2-4.8-2.5-9.4l-2.4-7.8
	c-0.9-2.9-1.9-5.9-2.8-9c-6.3-0.7-12.7-1-19.8,0.3c-2,6.2-3.7,12.1-5.1,16.6c-0.7,2.3-1.3,4.2-1.7,5.8c-0.4,1.6-0.7,2.8-0.8,3.4
	c-3.7,2.1-7,2.2-9.4,1.4c-2.4-0.8-3.8-2.4-3.4-3.9c0.2-2.2,1.4-7.5,2.9-14.3c1.6-6.8,3.5-15,5.5-23.1c2.3-9.4,4.9-19.6,7.7-30.8
	c1.6-3.1,4.8-5.2,8.4-6.2c1.8-0.5,3.7-0.8,5.7-0.8C261,53.1,264.7,54.1,267.8,56.2z M254.5,78.4c-1.1,4.9-2.2,10-3.4,13.8
	c3.4-0.1,7.5,0.1,12.3,0.7c-1.2-4.1-2.3-9.2-3.3-14.2c-0.5-2.5-1-4.8-1.5-7.2c-0.5-2.3-0.8-4.3-1.2-5.9
	C256.6,68.9,255.6,73.5,254.5,78.4z"/>
<path class="st0" d="M80.4,147.9v6.9H47.7c-10.9,0-18.1-1.6-21.8-4.8c-3.7-3.2-5.5-9.7-5.5-19.3v-16.9c0-6.5-1.2-11.1-3.5-13.6
	c-2.4-2.5-6.6-3.8-12.8-3.8H0v-6.9h4c6.2,0,10.5-1.3,12.8-3.8c2.4-2.5,3.5-7.1,3.5-13.6V55.2c0-9.6,1.8-16.1,5.5-19.3
	c3.7-3.2,10.9-4.8,21.8-4.8h32.7v6.8H47.3c-6.2,0-10.2,1-12,2.9c-1.9,1.9-2.8,6-2.8,12.1v18.8c0,6.9-1.1,11.8-3.3,14.8
	s-6.1,5.1-11.8,6.4c5.8,1.5,9.7,3.7,11.8,6.6s3.2,7.8,3.2,14.7v18.8c0,6.1,0.9,10.2,2.8,12.1c1.9,1.9,5.9,2.9,12,2.9L80.4,147.9
	L80.4,147.9z"/>
<path class="st0" d="M252.2,147.9h33.2c6.1,0,10.1-0.9,11.9-2.9c1.9-1.9,2.8-5.9,2.8-12.1v-18.8c0-6.8,1.1-11.7,3.2-14.7
	c2.1-2.9,6.1-5.1,11.8-6.6c-5.7-1.3-9.6-3.4-11.7-6.4s-3.2-7.9-3.2-14.8V52.9c0-6.2-0.9-10.2-2.8-12.1s-5.8-2.8-11.9-2.8h-33.2v-6.8
	H285c10.9,0,18.1,1.6,21.8,4.8c3.6,3.2,5.5,9.6,5.5,19.3v16.9c0,6.5,1.2,11.1,3.5,13.6c2.4,2.5,6.6,3.8,12.8,3.8h4v6.9h-4
	c-6.2,0-10.5,1.3-12.8,3.8c-2.4,2.5-3.5,7.1-3.5,13.6v16.9c0,9.6-1.8,16.1-5.5,19.3c-3.6,3.2-10.9,4.8-21.8,4.8h-32.8L252.2,147.9
	L252.2,147.9z"/>
<g>
	<path class="st0" d="M131.1,115.6c-9.4,0-16.3-7.2-16.3-17.7c0-11.7,6.3-18.8,16.3-18.8c9.3,0,15.8,7.1,15.8,17.5
		C146.9,108.5,140.6,115.6,131.1,115.6z M130.2,84.7c-5.7,0-9.4,4.6-9.4,11.9c0,8.1,3.9,13.2,10.8,13.2c6,0,9.1-5,9.1-11.9
		C140.8,89.2,137.2,84.7,130.2,84.7z"/>
	<path class="st0" d="M171.7,115.6c-8.8,0-16.1-8-16.1-17.8c0-12.1,5.6-18.8,15.4-18.8c4.3,0,8.1,1.9,10.5,6.7V8.4h1.6
		c2.9,0,4.5,1.6,4.5,4.9v82.9C187.6,109.8,182.7,115.6,171.7,115.6z M171.1,84.6c-6.1,0-9.5,4.7-9.5,12.6c0,7.1,4.3,12.7,10.6,12.7
		c6.4,0,9.3-3.4,9.3-12C181.5,91.5,179.6,84.6,171.1,84.6z"/>
	<path class="st0" d="M212.1,100h-8.7c0.5,5.9,4.6,10,11.2,10c5.4,0,8.7-1.7,10.7-3.6h0.3v2.6c0,3.7-3.9,6.6-11.9,6.6
		c-9.7,0-16.5-7.5-16.5-17.6c0-11.4,7.1-19,16.4-19c6.9,0,13.3,5.2,13.3,12.2C227.1,97.4,224.2,100,212.1,100z M213.1,84.3
		c-5.9,0-9.5,4.9-9.7,9.5l-0.1,1.5l8-0.2c8.4-0.2,9.9-0.9,9.9-3.6C221.3,87.8,218.6,84.3,213.1,84.3z"/>
</g>
<g>
	<circle class="st0" cx="184.5" cy="12.3" r="12.3"/>
	<ellipse class="st0" cx="186.3" cy="9" rx="6.6" ry="6.6"/>
</g>
<g>
	<path class="st0" d="M122.5,120.4h-3.3v2.5h3.4v0.4c0,0.4-0.3,0.7-0.8,0.7h-2.6v4h-0.4c-0.5,0-0.8-0.2-0.8-0.7v-6.9
		c0-0.8,0.3-1.1,1.3-1.1h3.9v0.5C123.2,120.1,123,120.4,122.5,120.4z"/>
	<path class="st0" d="M126.8,128.1c-1.7,0-3-1.3-3-3.3c0-2.2,1.2-3.5,3-3.5c1.7,0,2.9,1.3,2.9,3.2
		C129.7,126.8,128.6,128.1,126.8,128.1z M126.6,122.4c-1.1,0-1.7,0.8-1.7,2.2c0,1.5,0.7,2.4,2,2.4c1.1,0,1.7-0.9,1.7-2.2
		C128.6,123.3,127.9,122.4,126.6,122.4z"/>
	<path class="st0" d="M134.9,122.9c-0.2-0.2-0.6-0.3-1-0.3c-0.9,0-1.2,0.4-1.2,1.8v3.7h-0.5c-0.4,0-0.6-0.3-0.6-0.8v-3
		c0-1.8,0.9-2.8,2.1-2.8c0.9,0,1.2,0.4,1.2,0.8L134.9,122.9L134.9,122.9L134.9,122.9z"/>
	<path class="st0" d="M145.7,128c-0.5,0-0.7-0.2-0.8-0.6c-0.1-0.6-0.3-1.3-0.4-1.7h-4.1c-0.2,0.7-0.4,1.6-0.5,2.3h-0.4
		c-0.4,0-0.5-0.2-0.5-0.6c0-1.2,1.7-6.5,3.1-8.1h0.4c0.5,0,0.8,0.3,1.2,1c0.8,1.3,2.1,4.9,2.6,7.7L145.7,128L145.7,128z
		 M142.4,120.4c-0.8,1.4-1.3,2.8-1.8,4.4h3.5C143.7,123.2,143.2,121.8,142.4,120.4z"/>
	<path class="st0" d="M149.4,128.1c-1.3,0-2-0.6-2-1.9v-7.2h0.3c0.4,0,0.8,0.3,0.8,0.9v6.2c0,0.8,0.4,1.1,1,1.1h0.7v0.4
		C150.3,127.9,150,128.1,149.4,128.1z"/>
	<path class="st0" d="M153.5,128.1c-1.3,0-2-0.6-2-1.9v-7.2h0.3c0.4,0,0.8,0.3,0.8,0.9v6.2c0,0.8,0.4,1.1,1,1.1h0.7v0.4
		C154.4,127.9,154.1,128.1,153.5,128.1z"/>
	<path class="st0" d="M163.5,120.4h-2v7.6h-0.4c-0.5,0-0.8-0.2-0.8-0.8v-6.9h-2.6V120c0-0.3,0.2-0.7,0.8-0.7h5.8v0.4
		C164.2,120,163.9,120.4,163.5,120.4z"/>
	<path class="st0" d="M166.5,125.3h-1.6c0.1,1.1,0.9,1.8,2.1,1.8c1,0,1.6-0.3,2-0.7h0.1v0.5c0,0.7-0.7,1.2-2.2,1.2
		c-1.8,0-3.1-1.4-3.1-3.3c0-2.1,1.3-3.5,3-3.5c1.3,0,2.5,1,2.5,2.3C169.3,124.8,168.7,125.3,166.5,125.3z M166.7,122.4
		c-1.1,0-1.8,0.9-1.8,1.8l0,0.3l1.5,0c1.6,0,1.8-0.2,1.8-0.7C168.2,123,167.7,122.4,166.7,122.4z"/>
	<path class="st0" d="M175.8,123.3c-0.2-0.5-1-0.9-1.7-0.9c-1.3,0-2.1,0.9-2.1,2.2c0,1.7,1.2,2.4,2.2,2.4c0.7,0,1.3-0.2,1.6-0.6h0.1
		v0.5c0,0.4-0.5,1.1-1.9,1.1c-1.4,0-3.1-1.2-3.1-3.3c0-1.8,1.3-3.5,3.2-3.5c1,0,1.8,0.5,1.8,1.4L175.8,123.3L175.8,123.3
		L175.8,123.3z"/>
	<path class="st0" d="M182.9,128c-0.6,0-0.8-0.2-0.8-0.7v-3.1c0-1.3-0.6-1.8-1.6-1.8c-0.8,0-1.6,0.6-1.6,1.8v3.8h-0.3
		c-0.5,0-0.8-0.2-0.8-0.7v-8.4h0.3c0.5,0,0.8,0.2,0.8,0.8v2.8c0.5-0.9,1.2-1.2,1.8-1.2c1.6,0,2.5,0.8,2.5,2.8v3.9L182.9,128
		L182.9,128z"/>
	<path class="st0" d="M190.2,128c-0.4,0-0.7-0.2-0.7-0.7v-3c0-1.4-0.5-1.9-1.7-1.9c-1,0-1.5,0.6-1.5,1.9v3.7h-0.4
		c-0.4,0-0.7-0.2-0.7-0.8v-3c0-1.8,1.1-2.9,2.8-2.9c1.6,0,2.6,0.9,2.6,2.9v3.8H190.2z"/>
	<path class="st0" d="M195.4,128.1c-1.7,0-3-1.3-3-3.3c0-2.2,1.2-3.5,3-3.5c1.7,0,2.9,1.3,2.9,3.2
		C198.4,126.8,197.2,128.1,195.4,128.1z M195.2,122.4c-1.1,0-1.7,0.8-1.7,2.2c0,1.5,0.7,2.4,2,2.4c1.1,0,1.7-0.9,1.7-2.2
		C197.2,123.3,196.5,122.4,195.2,122.4z"/>
	<path class="st0" d="M202.3,128.1c-1.3,0-2-0.6-2-1.9v-7.2h0.3c0.4,0,0.8,0.3,0.8,0.9v6.2c0,0.8,0.4,1.1,1,1.1h0.7v0.4
		C203.2,127.9,202.9,128.1,202.3,128.1z"/>
	<path class="st0" d="M207.1,128.1c-1.7,0-3-1.3-3-3.3c0-2.2,1.2-3.5,3-3.5c1.7,0,2.9,1.3,2.9,3.2
		C210,126.8,208.8,128.1,207.1,128.1z M206.9,122.4c-1.1,0-1.7,0.8-1.7,2.2c0,1.5,0.7,2.4,2,2.4c1.1,0,1.7-0.9,1.7-2.2
		C208.9,123.3,208.2,122.4,206.9,122.4z"/>
	<path class="st0" d="M217.2,127.1c0,2-1.4,3-3.1,3c-1.1,0-2-0.5-2-1.3v-0.4h0.1c0.4,0.4,1,0.7,2.1,0.7c1.1,0,1.9-0.6,1.9-1.8
		c0-0.2-0.1-0.5-0.1-0.8V126c-0.3,0.6-0.8,1.2-1.8,1.2c-1.5,0-2.7-1-2.7-2.6s1-3.2,3.1-3.2c1.5,0,2.5,0.9,2.5,2.8v1.8
		C217.1,126.2,217.2,126.8,217.2,127.1z M214.5,122.4c-1.1,0-1.8,0.9-1.8,1.9c0,1.3,0.7,1.8,1.7,1.8c1.1,0,1.7-0.7,1.7-1.7
		C216.1,123,215.6,122.4,214.5,122.4z"/>
	<path class="st0" d="M222.5,127.4c-1,2.1-1.6,2.8-2.6,2.8c-0.5,0-0.9-0.3-0.9-0.6v-0.4h0.5c0.5,0,0.8-0.1,1.6-1.6
		c-1-1.6-2.1-4-2.5-6.2h0.6c0.5,0,0.6,0.4,0.7,0.7c0.3,1.3,0.9,3.1,1.8,4.4c0.7-1.2,1.6-3.7,1.9-5.1h0.4c0.3,0,0.5,0.1,0.5,0.5
		c0,0.1-0.1,0.5-0.1,0.7C223.9,124.6,222.9,126.7,222.5,127.4z"/>
</g>
<g>
	<path class="st0" d="M86.7,151.2v2.2h-0.3c-0.3,0-0.4-0.1-0.4-0.4v-1.7c-0.6-0.8-1.3-2-1.7-3h0.4c0.2,0,0.4,0.1,0.5,0.4
		c0.3,0.6,0.7,1.4,1.2,2.1c0.5-0.7,1.1-1.7,1.4-2.5H88c0.2,0,0.3,0.1,0.3,0.3C88.3,148.8,87.2,150.6,86.7,151.2z"/>
	<path class="st0" d="M90,153.5c-1,0-1.8-0.8-1.8-1.9c0-1.3,0.7-2.1,1.8-2.1c1,0,1.7,0.8,1.7,1.9C91.7,152.7,91,153.5,90,153.5z
		 M89.9,150.1c-0.6,0-1,0.5-1,1.3c0,0.9,0.4,1.4,1.2,1.4c0.7,0,1-0.6,1-1.3C91.1,150.6,90.7,150.1,89.9,150.1z"/>
	<path class="st0" d="M94.4,153.5c-1,0-1.6-0.7-1.6-1.8v-2.2H93c0.3,0,0.5,0.2,0.5,0.5v1.6c0,0.8,0.4,1.2,1,1.2
		c0.6,0,0.9-0.3,0.9-1.2v-2.1h0.2c0.3,0,0.5,0.2,0.5,0.5v1.7C96,152.9,95.4,153.5,94.4,153.5z"/>
	<path class="st0" d="M99.8,149c-0.2,0-0.4-0.2-0.4-0.4s0.2-0.5,0.4-0.5c0.2,0,0.4,0.2,0.4,0.5S100,149,99.8,149z M100.6,153.4
		c-0.8,0-1.2-0.4-1.2-1.1v-2.8h0.2c0.2,0,0.5,0.2,0.5,0.5v2.1c0,0.5,0.2,0.6,0.6,0.6h0.3v0.2C101,153.3,100.8,153.4,100.6,153.4z"/>
	<path class="st0" d="M107,153.4c-0.3,0-0.4-0.2-0.4-0.5v-1.7c0-0.8-0.3-1.1-0.8-1.1c-0.6,0-0.9,0.3-0.9,1.1v2.2h-0.2
		c-0.3,0-0.4-0.2-0.4-0.5v-1.7c0-0.7-0.3-1.1-0.9-1.1c-0.6,0-0.9,0.3-0.9,1.1v2.2h-0.2c-0.3,0-0.4-0.2-0.4-0.5v-1.8
		c0-0.9,0.6-1.7,1.6-1.7c0.6,0,1,0.3,1.2,0.7c0.3-0.4,0.7-0.7,1.2-0.7c1,0,1.5,0.6,1.5,1.7v2.2L107,153.4L107,153.4z"/>
	<path class="st0" d="M109.7,153.5c-0.8,0-1.5-0.5-1.5-1.1c0-0.8,0.7-1.3,1.8-1.3h0.5v-0.2c0-0.6-0.3-0.8-0.9-0.8
		c-0.6,0-1,0.2-1.2,0.5h0v-0.3c0-0.4,0.5-0.8,1.3-0.8c1,0,1.5,0.5,1.5,1.5v1.2C111.3,152.9,110.8,153.5,109.7,153.5z M110.6,151.6
		h-0.5c-0.8,0-1.1,0.2-1.1,0.7c0,0.3,0.3,0.6,0.8,0.6c0.6,0,0.8-0.2,0.8-0.8V151.6z"/>
	<path class="st0" d="M115.7,152.8c0,1.2-0.8,1.8-1.8,1.8c-0.6,0-1.2-0.3-1.2-0.8v-0.3h0.1c0.3,0.2,0.6,0.4,1.2,0.4
		c0.6,0,1.1-0.4,1.1-1.1c0-0.1,0-0.3,0-0.5v-0.2c-0.2,0.4-0.5,0.7-1.1,0.7c-0.9,0-1.6-0.6-1.6-1.6s0.6-1.9,1.8-1.9
		c0.9,0,1.5,0.6,1.5,1.6v1.1C115.6,152.3,115.7,152.7,115.7,152.8z M114,150.1c-0.7,0-1.1,0.6-1.1,1.1c0,0.8,0.4,1.1,1,1.1
		c0.6,0,1-0.4,1-1C115,150.4,114.7,150.1,114,150.1z"/>
	<path class="st0" d="M117.3,149c-0.2,0-0.4-0.2-0.4-0.4s0.2-0.5,0.4-0.5c0.2,0,0.4,0.2,0.4,0.5S117.5,149,117.3,149z M118.1,153.4
		c-0.8,0-1.2-0.4-1.2-1.1v-2.8h0.2c0.2,0,0.5,0.2,0.5,0.5v2.1c0,0.5,0.2,0.6,0.6,0.6h0.3v0.2C118.5,153.3,118.3,153.4,118.1,153.4z"
		/>
	<path class="st0" d="M122.2,153.4c-0.3,0-0.4-0.1-0.4-0.4v-1.8c0-0.8-0.3-1.1-1-1.1c-0.6,0-0.9,0.3-0.9,1.1v2.2h-0.2
		c-0.2,0-0.4-0.1-0.4-0.4v-1.8c0-1.1,0.7-1.7,1.7-1.7c1,0,1.6,0.6,1.6,1.7v2.2L122.2,153.4L122.2,153.4z"/>
	<path class="st0" d="M125.1,151.8h-1c0.1,0.6,0.5,1.1,1.2,1.1c0.6,0,1-0.2,1.2-0.4h0v0.3c0,0.4-0.4,0.7-1.3,0.7
		c-1.1,0-1.8-0.8-1.8-1.9c0-1.3,0.8-2.1,1.8-2.1c0.8,0,1.5,0.6,1.5,1.4C126.8,151.5,126.4,151.8,125.1,151.8z M125.2,150
		c-0.7,0-1,0.5-1.1,1l0,0.2l0.9,0c0.9,0,1.1-0.1,1.1-0.4C126.1,150.4,125.8,150,125.2,150z"/>
	<path class="st0" d="M130.4,149c-0.2,0-0.4-0.2-0.4-0.4s0.2-0.5,0.4-0.5c0.2,0,0.4,0.2,0.4,0.5C130.8,148.8,130.6,149,130.4,149z
		 M131.2,153.4c-0.8,0-1.2-0.4-1.2-1.1v-2.8h0.2c0.2,0,0.5,0.2,0.5,0.5v2.1c0,0.5,0.2,0.6,0.6,0.6h0.3v0.2
		C131.6,153.3,131.4,153.4,131.2,153.4z"/>
	<path class="st0" d="M137.6,153.4c-0.3,0-0.4-0.2-0.4-0.5v-1.7c0-0.8-0.3-1.1-0.8-1.1c-0.6,0-0.9,0.3-0.9,1.1v2.2h-0.2
		c-0.3,0-0.4-0.2-0.4-0.5v-1.7c0-0.7-0.3-1.1-0.9-1.1c-0.6,0-0.9,0.3-0.9,1.1v2.2h-0.2c-0.3,0-0.4-0.2-0.4-0.5v-1.8
		c0-0.9,0.6-1.7,1.6-1.7c0.6,0,1,0.3,1.2,0.7c0.3-0.4,0.7-0.7,1.2-0.7c1,0,1.5,0.6,1.5,1.7v2.2L137.6,153.4L137.6,153.4z"/>
	<path class="st0" d="M140.8,153.5c-0.4,0-0.9-0.3-1.1-0.7v1.9h-0.2c-0.3,0-0.4-0.1-0.4-0.5v-2.6c0-1.3,0.6-2.1,1.9-2.1
		c0.9,0,1.7,0.8,1.7,1.9C142.5,152.7,141.8,153.5,140.8,153.5z M140.7,150.1c-0.7,0-1.1,0.5-1.1,1.3c0,1,0.5,1.5,1.2,1.5
		c0.6,0,1-0.5,1-1.3C141.9,150.5,141.4,150.1,140.7,150.1z"/>
	<path class="st0" d="M145.3,153.5c-1,0-1.8-0.8-1.8-1.9c0-1.3,0.7-2.1,1.8-2.1c1,0,1.7,0.8,1.7,1.9
		C147,152.7,146.3,153.5,145.3,153.5z M145.2,150.1c-0.6,0-1,0.5-1,1.3c0,0.9,0.4,1.4,1.2,1.4c0.7,0,1-0.6,1-1.3
		C146.3,150.6,145.9,150.1,145.2,150.1z"/>
	<path class="st0" d="M149.2,153.5c-0.6,0-1.2-0.3-1.2-0.8v-0.3h0c0.2,0.2,0.6,0.4,1.1,0.4c0.6,0,0.8-0.2,0.8-0.6
		c0-0.3-0.1-0.5-1-0.6c-0.7-0.1-1.1-0.4-1.1-1c0-0.6,0.6-1.2,1.5-1.2c0.6,0,1.1,0.3,1.1,0.7v0.3h0c-0.2-0.2-0.6-0.4-1.1-0.4
		c-0.7,0-0.9,0.2-0.9,0.6c0,0.3,0.1,0.4,1,0.6c0.8,0.2,1.1,0.5,1.1,1.1C150.7,153,150.1,153.5,149.2,153.5z"/>
	<path class="st0" d="M152.9,153.5c-0.6,0-1.2-0.3-1.2-0.8v-0.3h0c0.2,0.2,0.6,0.4,1.1,0.4c0.6,0,0.8-0.2,0.8-0.6
		c0-0.3-0.1-0.5-1-0.6c-0.7-0.1-1.1-0.4-1.1-1c0-0.6,0.6-1.2,1.5-1.2c0.6,0,1.1,0.3,1.1,0.7v0.3h0c-0.2-0.2-0.6-0.4-1.1-0.4
		c-0.7,0-0.9,0.2-0.9,0.6c0,0.3,0.1,0.4,1,0.6c0.8,0.2,1.1,0.5,1.1,1.1C154.4,153,153.8,153.5,152.9,153.5z"/>
	<path class="st0" d="M155.9,149c-0.2,0-0.4-0.2-0.4-0.4s0.2-0.5,0.4-0.5c0.2,0,0.4,0.2,0.4,0.5S156.2,149,155.9,149z M156.8,153.4
		c-0.8,0-1.2-0.4-1.2-1.1v-2.8h0.2c0.2,0,0.5,0.2,0.5,0.5v2.1c0,0.5,0.2,0.6,0.6,0.6h0.3v0.2C157.1,153.3,157,153.4,156.8,153.4z"/>
	<path class="st0" d="M159.6,153.5c-1.1,0-1.7-0.8-1.7-1.9V148h0.3c0.2,0,0.4,0.1,0.4,0.4v1.8c0.2-0.5,0.7-0.8,1.2-0.8
		c0.9,0,1.6,0.7,1.6,1.9C161.4,152.6,160.7,153.5,159.6,153.5z M159.6,150.1c-0.6,0-1.1,0.6-1.1,1.4c0,1,0.4,1.4,1.1,1.4
		c0.6,0,1.1-0.6,1.1-1.4C160.7,150.4,160.2,150.1,159.6,150.1z"/>
	<path class="st0" d="M163.8,153.4c-0.8,0-1.2-0.4-1.2-1.1V148h0.2c0.3,0,0.5,0.2,0.5,0.5v3.7c0,0.5,0.2,0.6,0.6,0.6h0.4v0.2
		C164.3,153.3,164.1,153.4,163.8,153.4z"/>
	<path class="st0" d="M166.4,151.8h-1c0.1,0.6,0.5,1.1,1.2,1.1c0.6,0,1-0.2,1.2-0.4h0v0.3c0,0.4-0.4,0.7-1.3,0.7
		c-1.1,0-1.8-0.8-1.8-1.9c0-1.3,0.8-2.1,1.8-2.1c0.8,0,1.5,0.6,1.5,1.4C168.1,151.5,167.8,151.8,166.4,151.8z M166.5,150
		c-0.6,0-1,0.5-1.1,1l0,0.2l0.9,0c0.9,0,1.1-0.1,1.1-0.4C167.4,150.4,167.1,150,166.5,150z"/>
	<path class="st0" d="M169.7,153.4c-0.3,0-0.6-0.2-0.6-0.5c0-0.3,0.2-0.5,0.6-0.5c0.3,0,0.5,0.2,0.5,0.5
		C170.3,153.2,170,153.4,169.7,153.4z"/>
	<path class="st0" d="M178.3,153.4h-0.2c-0.4,0-1.1-2-1.5-3.8c-0.3,1.5-0.9,3.1-1.3,3.8h-0.1c-0.2,0-0.3-0.1-0.4-0.2
		c-0.7-1.5-1.2-3.1-1.5-5h0.4c0.2,0,0.4,0.2,0.4,0.4c0.2,1.2,0.6,2.5,1.1,3.7c0.5-1.4,1-3,1.1-4h0.2c0.4,0,0.5,0.1,0.6,0.6
		c0.2,1,0.6,2.4,1.1,3.4c0.5-1.2,1-2.9,1.1-4.2h0.4c0.1,0,0.3,0.1,0.3,0.3c0,0.1,0,0.3-0.1,0.4C179.6,150.4,179,152,178.3,153.4z"/>
	<path class="st0" d="M182.1,151.8h-1c0.1,0.6,0.5,1.1,1.2,1.1c0.6,0,1-0.2,1.2-0.4h0v0.3c0,0.4-0.4,0.7-1.3,0.7
		c-1.1,0-1.8-0.8-1.8-1.9c0-1.3,0.8-2.1,1.8-2.1c0.8,0,1.5,0.6,1.5,1.4C183.7,151.5,183.4,151.8,182.1,151.8z M182.2,150
		c-0.6,0-1,0.5-1.1,1l0,0.2l0.9,0c0.9,0,1.1-0.1,1.1-0.4C183.1,150.4,182.8,150,182.2,150z"/>
	<path class="st0" d="M188.6,153.5c-1.1,0-1.7-0.8-1.7-1.9V148h0.3c0.2,0,0.4,0.1,0.4,0.4v1.8c0.2-0.5,0.7-0.8,1.2-0.8
		c0.9,0,1.6,0.7,1.6,1.9C190.4,152.6,189.7,153.5,188.6,153.5z M188.6,150.1c-0.6,0-1.1,0.6-1.1,1.4c0,1,0.4,1.4,1.1,1.4
		c0.6,0,1.1-0.6,1.1-1.4C189.7,150.4,189.2,150.1,188.6,150.1z"/>
	<path class="st0" d="M193.1,153.5c-1,0-1.6-0.7-1.6-1.8v-2.2h0.2c0.3,0,0.5,0.2,0.5,0.5v1.6c0,0.8,0.4,1.2,1,1.2
		c0.6,0,0.9-0.3,0.9-1.2v-2.1h0.2c0.3,0,0.5,0.2,0.5,0.5v1.7C194.7,152.9,194.1,153.5,193.1,153.5z"/>
	<path class="st0" d="M196.4,149c-0.2,0-0.4-0.2-0.4-0.4s0.2-0.5,0.4-0.5c0.2,0,0.4,0.2,0.4,0.5S196.6,149,196.4,149z M197.2,153.4
		c-0.8,0-1.2-0.4-1.2-1.1v-2.8h0.2c0.2,0,0.5,0.2,0.5,0.5v2.1c0,0.5,0.2,0.6,0.6,0.6h0.3v0.2C197.6,153.3,197.4,153.4,197.2,153.4z"
		/>
	<path class="st0" d="M199.6,153.4c-0.8,0-1.2-0.4-1.2-1.1V148h0.2c0.3,0,0.5,0.2,0.5,0.5v3.7c0,0.5,0.2,0.6,0.6,0.6h0.4v0.2
		C200.1,153.3,199.9,153.4,199.6,153.4z"/>
	<path class="st0" d="M202.4,153.5c-1,0-1.8-0.9-1.8-2c0-1.3,0.6-2.1,1.7-2.1c0.5,0,0.9,0.2,1.2,0.7V148h0.2c0.3,0,0.5,0.2,0.5,0.5
		v2.8C204.1,152.8,203.6,153.5,202.4,153.5z M202.3,150.1c-0.7,0-1.1,0.5-1.1,1.4c0,0.8,0.5,1.4,1.2,1.4c0.7,0,1-0.4,1-1.3
		C203.5,150.8,203.2,150.1,202.3,150.1z"/>
	<path class="st0" d="M207.9,149c-0.2,0-0.4-0.2-0.4-0.4s0.2-0.5,0.4-0.5c0.2,0,0.4,0.2,0.4,0.5S208.2,149,207.9,149z M208.7,153.4
		c-0.8,0-1.2-0.4-1.2-1.1v-2.8h0.2c0.2,0,0.5,0.2,0.5,0.5v2.1c0,0.5,0.2,0.6,0.6,0.6h0.3v0.2C209.1,153.3,209,153.4,208.7,153.4z"/>
	<path class="st0" d="M215.1,153.4c-0.3,0-0.4-0.2-0.4-0.5v-1.7c0-0.8-0.3-1.1-0.8-1.1c-0.6,0-0.9,0.3-0.9,1.1v2.2h-0.2
		c-0.3,0-0.4-0.2-0.4-0.5v-1.7c0-0.7-0.3-1.1-0.9-1.1c-0.6,0-0.9,0.3-0.9,1.1v2.2h-0.2c-0.3,0-0.4-0.2-0.4-0.5v-1.8
		c0-0.9,0.6-1.7,1.6-1.7c0.6,0,1,0.3,1.2,0.7c0.3-0.4,0.7-0.7,1.2-0.7c1,0,1.5,0.6,1.5,1.7v2.2L215.1,153.4L215.1,153.4z"/>
	<path class="st0" d="M218.3,153.5c-0.4,0-0.9-0.3-1.1-0.7v1.9h-0.2c-0.3,0-0.4-0.1-0.4-0.5v-2.6c0-1.3,0.6-2.1,1.9-2.1
		c0.9,0,1.7,0.8,1.7,1.9C220,152.7,219.3,153.5,218.3,153.5z M218.2,150.1c-0.7,0-1.1,0.5-1.1,1.3c0,1,0.5,1.5,1.2,1.5
		c0.6,0,1-0.5,1-1.3C219.4,150.5,218.9,150.1,218.2,150.1z"/>
	<path class="st0" d="M222.8,153.5c-1,0-1.8-0.8-1.8-1.9c0-1.3,0.7-2.1,1.8-2.1c1,0,1.7,0.8,1.7,1.9
		C224.5,152.7,223.8,153.5,222.8,153.5z M222.7,150.1c-0.6,0-1,0.5-1,1.3c0,0.9,0.4,1.4,1.2,1.4c0.7,0,1-0.6,1-1.3
		C223.8,150.6,223.4,150.1,222.7,150.1z"/>
	<path class="st0" d="M226.7,153.5c-0.6,0-1.2-0.3-1.2-0.8v-0.3h0c0.2,0.2,0.6,0.4,1.1,0.4c0.6,0,0.8-0.2,0.8-0.6
		c0-0.3-0.1-0.5-1-0.6c-0.7-0.1-1.1-0.4-1.1-1c0-0.6,0.6-1.2,1.5-1.2c0.6,0,1.1,0.3,1.1,0.7v0.3h0c-0.2-0.2-0.6-0.4-1.1-0.4
		c-0.7,0-0.9,0.2-0.9,0.6c0,0.3,0.1,0.4,1,0.6c0.8,0.2,1.1,0.5,1.1,1.1C228.2,153,227.6,153.5,226.7,153.5z"/>
	<path class="st0" d="M230.4,153.5c-0.6,0-1.2-0.3-1.2-0.8v-0.3h0c0.2,0.2,0.6,0.4,1.1,0.4c0.6,0,0.8-0.2,0.8-0.6
		c0-0.3-0.1-0.5-1-0.6c-0.7-0.1-1.1-0.4-1.1-1c0-0.6,0.6-1.2,1.5-1.2c0.6,0,1.1,0.3,1.1,0.7v0.3h0c-0.2-0.2-0.6-0.4-1.1-0.4
		c-0.7,0-0.9,0.2-0.9,0.6c0,0.3,0.1,0.4,1,0.6c0.8,0.2,1.1,0.5,1.1,1.1C231.9,153,231.3,153.5,230.4,153.5z"/>
	<path class="st0" d="M233.4,149c-0.2,0-0.4-0.2-0.4-0.4s0.2-0.5,0.4-0.5c0.2,0,0.4,0.2,0.4,0.5C233.9,148.8,233.7,149,233.4,149z
		 M234.3,153.4c-0.8,0-1.2-0.4-1.2-1.1v-2.8h0.2c0.2,0,0.5,0.2,0.5,0.5v2.1c0,0.5,0.2,0.6,0.6,0.6h0.3v0.2
		C234.6,153.3,234.5,153.4,234.3,153.4z"/>
	<path class="st0" d="M237.1,153.5c-1.1,0-1.7-0.8-1.7-1.9V148h0.3c0.2,0,0.4,0.1,0.4,0.4v1.8c0.2-0.5,0.7-0.8,1.2-0.8
		c0.9,0,1.6,0.7,1.6,1.9C238.9,152.6,238.2,153.5,237.1,153.5z M237.1,150.1c-0.6,0-1.1,0.6-1.1,1.4c0,1,0.4,1.4,1.1,1.4
		c0.6,0,1.1-0.6,1.1-1.4C238.2,150.4,237.8,150.1,237.1,150.1z"/>
	<path class="st0" d="M241.3,153.4c-0.8,0-1.2-0.4-1.2-1.1V148h0.2c0.3,0,0.5,0.2,0.5,0.5v3.7c0,0.5,0.2,0.6,0.6,0.6h0.4v0.2
		C241.8,153.3,241.6,153.4,241.3,153.4z"/>
	<path class="st0" d="M243.9,151.8h-1c0.1,0.6,0.5,1.1,1.2,1.1c0.6,0,1-0.2,1.2-0.4h0v0.3c0,0.4-0.4,0.7-1.3,0.7
		c-1.1,0-1.8-0.8-1.8-1.9c0-1.3,0.8-2.1,1.8-2.1c0.8,0,1.5,0.6,1.5,1.4C245.6,151.5,245.3,151.8,243.9,151.8z M244,150
		c-0.6,0-1,0.5-1.1,1l0,0.2l0.9,0c0.9,0,1.1-0.1,1.1-0.4C244.9,150.4,244.6,150,244,150z"/>
	<path class="st0" d="M247.2,153.4c-0.3,0-0.6-0.2-0.6-0.5c0-0.3,0.2-0.5,0.6-0.5c0.3,0,0.5,0.2,0.5,0.5
		C247.8,153.2,247.5,153.4,247.2,153.4z"/>
</g>
</svg>
